<svg version="1.1" xmlns="http://www.w3.org/2000/svg" viewBox="0 0 1411 629" width="1411" height="629" filter="invert(93%) hue-rotate(180deg)">
  <!-- svg-source:excalidraw -->
  
  <defs>
    <style class="style-fonts">
      @font-face {
        font-family: "Virgil";
        src: url("https://excalidraw.com/Virgil.woff2");
      }
      @font-face {
        font-family: "Cascadia";
        src: url("https://excalidraw.com/Cascadia.woff2");
      }
      @font-face {
        font-family: "Assistant";
        src: url("https://excalidraw.com/Assistant-Regular.woff2");
      }
    </style>
    
  </defs>
  <rect x="0" y="0" width="1411" height="629" fill="#ffffff"></rect><g stroke-linecap="round" transform="translate(297 63) rotate(0 80 29.5)"><path d="M14.75 0 C49.18 1.54, 81.1 2.06, 145.25 0 M14.75 0 C62.39 -0.36, 111.1 0.46, 145.25 0 M145.25 0 C153.9 -0.84, 161.25 3.1, 160 14.75 M145.25 0 C153.79 1.82, 161.54 7.08, 160 14.75 M160 14.75 C161.81 23.55, 158.79 32.08, 160 44.25 M160 14.75 C159.26 25, 160.33 34.08, 160 44.25 M160 44.25 C161.1 54.51, 154.55 57.3, 145.25 59 M160 44.25 C157.91 55.46, 153.41 58.94, 145.25 59 M145.25 59 C117.42 59.6, 87.21 59.83, 14.75 59 M145.25 59 C104 59.51, 64.62 59.02, 14.75 59 M14.75 59 C5.16 57.86, -0.2 52.93, 0 44.25 M14.75 59 C5.96 58.73, -1.27 52.21, 0 44.25 M0 44.25 C-1.49 33.53, -1.24 25.07, 0 14.75 M0 44.25 C0.22 35.95, -0.76 29.65, 0 14.75 M0 14.75 C0.73 4.79, 6.82 0.49, 14.75 0 M0 14.75 C0.03 6.19, 3.55 -0.02, 14.75 0" stroke="#1e1e1e" stroke-width="2" fill="none"></path></g><g stroke-linecap="round" transform="translate(20 131) rotate(0 80 29.5)"><path d="M14.75 0 C41.32 1.93, 67.12 1.05, 145.25 0 M14.75 0 C47.66 1.35, 80.11 -0.03, 145.25 0 M145.25 0 C154.2 -1.8, 161.29 4.45, 160 14.75 M145.25 0 C155.35 -2.05, 159.02 3.63, 160 14.75 M160 14.75 C161.29 24.61, 158.85 34.98, 160 44.25 M160 14.75 C160.95 22.84, 160.25 29.45, 160 44.25 M160 44.25 C159.44 55.63, 156.54 58.51, 145.25 59 M160 44.25 C161.82 55.42, 156.14 58.07, 145.25 59 M145.25 59 C104.87 58.06, 69.5 60.4, 14.75 59 M145.25 59 C117.32 57.88, 90.9 59.03, 14.75 59 M14.75 59 C5.75 58.57, 1.67 54.4, 0 44.25 M14.75 59 C3.5 60.87, 1.71 53.87, 0 44.25 M0 44.25 C1.78 31.14, 1.26 20.52, 0 14.75 M0 44.25 C-0.36 37.24, -0.33 31.62, 0 14.75 M0 14.75 C0.01 5.26, 3.01 1.04, 14.75 0 M0 14.75 C1.72 6.7, 2.9 1.7, 14.75 0" stroke="#1e1e1e" stroke-width="2" fill="none"></path></g><g stroke-linecap="round" transform="translate(10 300) rotate(0 92 29.5)"><path d="M14.75 0 C50.55 -0.3, 91.27 -0.93, 169.25 0 M14.75 0 C63.53 -0.38, 111.1 -0.97, 169.25 0 M169.25 0 C178.51 -1.08, 183.34 3.67, 184 14.75 M169.25 0 C179.63 0.66, 185.67 4.28, 184 14.75 M184 14.75 C182.3 21.28, 183.45 29.41, 184 44.25 M184 14.75 C184.72 26.03, 183.1 37.55, 184 44.25 M184 44.25 C183.58 55.35, 179.15 58.87, 169.25 59 M184 44.25 C184.67 56.32, 177.24 61.13, 169.25 59 M169.25 59 C120.42 59.6, 72.2 59.61, 14.75 59 M169.25 59 C136.73 57.87, 104.33 58.34, 14.75 59 M14.75 59 C6.6 58.21, -0.8 54.19, 0 44.25 M14.75 59 C5.63 59.29, 0.28 55.12, 0 44.25 M0 44.25 C-1.12 31.95, -1.16 23.69, 0 14.75 M0 44.25 C-0.18 33.08, -0.19 21.31, 0 14.75 M0 14.75 C0.62 3.18, 6.75 1.27, 14.75 0 M0 14.75 C2.29 6.54, 3.53 -1.73, 14.75 0" stroke="#1e1e1e" stroke-width="2" fill="none"></path></g><g stroke-linecap="round" transform="translate(294 180) rotate(0 80 29.5)"><path d="M14.75 0 C44.72 -0.88, 75.8 -0.61, 145.25 0 M14.75 0 C56.79 0.22, 100.2 -0.14, 145.25 0 M145.25 0 C154.45 -1.71, 159.84 4.78, 160 14.75 M145.25 0 C156.57 -0.06, 159.18 3.29, 160 14.75 M160 14.75 C161.86 19.53, 158.44 27.89, 160 44.25 M160 14.75 C159.71 21.36, 160.56 28.76, 160 44.25 M160 44.25 C160.73 53.37, 156.68 57.39, 145.25 59 M160 44.25 C160.27 54.27, 154.63 58.04, 145.25 59 M145.25 59 C115.59 60.87, 87.27 57.92, 14.75 59 M145.25 59 C112.84 57.95, 79.34 58.08, 14.75 59 M14.75 59 C3.54 59.32, -0.66 54.47, 0 44.25 M14.75 59 C4.84 60.48, 1.3 53.77, 0 44.25 M0 44.25 C-0.87 37.63, -1.81 29.47, 0 14.75 M0 44.25 C-0.51 35.62, -0.82 26.21, 0 14.75 M0 14.75 C-1.42 4.8, 4.48 1.85, 14.75 0 M0 14.75 C2.23 5.72, 3.28 -1.25, 14.75 0" stroke="#1e1e1e" stroke-width="2" fill="none"></path></g><g stroke-linecap="round" transform="translate(294 303) rotate(0 80 29.5)"><path d="M14.75 0 C65.82 -1.25, 113.31 1.18, 145.25 0 M14.75 0 C55.88 0.74, 97.04 1.19, 145.25 0 M145.25 0 C154.05 -1.34, 158.35 3.06, 160 14.75 M145.25 0 C154.87 2.08, 159 6.65, 160 14.75 M160 14.75 C160.14 27.91, 160.55 35.89, 160 44.25 M160 14.75 C160.7 25.44, 160.7 34.97, 160 44.25 M160 44.25 C158.09 54.58, 153.62 59.52, 145.25 59 M160 44.25 C160.48 55.22, 155.72 59.75, 145.25 59 M145.25 59 C102.14 60.01, 60.28 59.87, 14.75 59 M145.25 59 C114.64 58.94, 83.69 58.6, 14.75 59 M14.75 59 C3.65 58.53, 1.38 55.48, 0 44.25 M14.75 59 C4.95 56.81, -1.32 52.86, 0 44.25 M0 44.25 C-1.39 32.8, -1.36 19.99, 0 14.75 M0 44.25 C-0.46 38.13, -0.01 31.59, 0 14.75 M0 14.75 C0.16 6.62, 4.66 1.59, 14.75 0 M0 14.75 C-0.97 5.74, 5.36 -1.67, 14.75 0" stroke="#1e1e1e" stroke-width="2" fill="none"></path></g><g stroke-linecap="round" transform="translate(293 432) rotate(0 80 29.5)"><path d="M14.75 0 C42.37 -1.09, 72.6 -0.93, 145.25 0 M14.75 0 C62.5 0.19, 111.4 1.04, 145.25 0 M145.25 0 C155.68 0.88, 161.26 6.02, 160 14.75 M145.25 0 C153.05 0.79, 162.1 4.64, 160 14.75 M160 14.75 C161.84 24.31, 160.02 28.79, 160 44.25 M160 14.75 C160.02 24.83, 159.84 36.71, 160 44.25 M160 44.25 C158.47 53.94, 155.38 59.74, 145.25 59 M160 44.25 C159.01 55.03, 154.46 59.07, 145.25 59 M145.25 59 C93.57 58.17, 43.62 59.05, 14.75 59 M145.25 59 C113.59 59.31, 81.2 59.12, 14.75 59 M14.75 59 C3.26 58.53, -0.9 52.15, 0 44.25 M14.75 59 C6.22 58.34, 1.64 52.89, 0 44.25 M0 44.25 C-0.19 37.06, -0.86 27.77, 0 14.75 M0 44.25 C-0.94 38.34, 0 31.29, 0 14.75 M0 14.75 C-1.13 4.83, 2.93 1.86, 14.75 0 M0 14.75 C0.42 7.08, 7 -1.87, 14.75 0" stroke="#1e1e1e" stroke-width="2" fill="none"></path></g><g stroke-linecap="round" transform="translate(294 560) rotate(0 80 29.5)"><path d="M14.75 0 C42.8 1.57, 65.45 0.31, 145.25 0 M14.75 0 C47.98 1.32, 81.79 1.91, 145.25 0 M145.25 0 C154.24 1.9, 159.3 6.82, 160 14.75 M145.25 0 C155.02 -0.57, 157.82 3.13, 160 14.75 M160 14.75 C160.4 24.04, 161.62 30.9, 160 44.25 M160 14.75 C161.15 20.7, 160.52 26.48, 160 44.25 M160 44.25 C160.43 54.56, 155.19 57.65, 145.25 59 M160 44.25 C159.69 52.91, 153.49 57.68, 145.25 59 M145.25 59 C100.98 57.27, 62.04 59.98, 14.75 59 M145.25 59 C118.83 59.99, 93.27 60.04, 14.75 59 M14.75 59 C6.39 58.84, -0.45 54, 0 44.25 M14.75 59 C7.15 57.95, 0.71 54.1, 0 44.25 M0 44.25 C-0.61 36.6, -0.92 28.71, 0 14.75 M0 44.25 C0.35 35.43, -0.84 25.67, 0 14.75 M0 14.75 C0.49 5.34, 5.53 1.76, 14.75 0 M0 14.75 C0.57 4.21, 3.89 1.02, 14.75 0" stroke="#1e1e1e" stroke-width="2" fill="none"></path></g><g stroke-linecap="round" transform="translate(519 181) rotate(0 80 29.5)"><path d="M14.75 0 C40.43 -1.56, 66.16 1.18, 145.25 0 M14.75 0 C60.7 0.13, 107.43 0.52, 145.25 0 M145.25 0 C154.6 0.93, 160.5 3.54, 160 14.75 M145.25 0 C154.47 -0.51, 160.03 5.71, 160 14.75 M160 14.75 C159.28 24.55, 160.96 31.94, 160 44.25 M160 14.75 C160.63 23.7, 159.35 33.41, 160 44.25 M160 44.25 C159.72 55.68, 156.59 57.31, 145.25 59 M160 44.25 C160.88 52.62, 153.35 59.4, 145.25 59 M145.25 59 C95.72 59.37, 47.62 58.39, 14.75 59 M145.25 59 C112.8 58.75, 78.79 59.2, 14.75 59 M14.75 59 C3.74 60.88, 0.45 52.57, 0 44.25 M14.75 59 C2.99 58.16, 1.42 56.25, 0 44.25 M0 44.25 C-0.01 35.65, 1.69 31.1, 0 14.75 M0 44.25 C-0.61 36.77, 0.34 29.91, 0 14.75 M0 14.75 C-0.41 3, 3.94 -1.04, 14.75 0 M0 14.75 C-1.27 5.33, 2.81 -0.3, 14.75 0" stroke="#1e1e1e" stroke-width="2" fill="none"></path></g><g stroke-linecap="round" transform="translate(740 179) rotate(0 80 29.5)"><path d="M14.75 0 C55.22 -1.81, 92.72 0.78, 145.25 0 M14.75 0 C43.58 -0.37, 73.03 -0.39, 145.25 0 M145.25 0 C156.25 -0.6, 158.21 4.22, 160 14.75 M145.25 0 C154.04 0.99, 159.99 4.67, 160 14.75 M160 14.75 C158.69 21.68, 158.47 28.6, 160 44.25 M160 14.75 C159.95 24.61, 160.77 34.26, 160 44.25 M160 44.25 C159.21 54.76, 154.83 59.09, 145.25 59 M160 44.25 C160.33 53.36, 155.7 57.44, 145.25 59 M145.25 59 C101.95 59.58, 63.51 60.28, 14.75 59 M145.25 59 C109.6 57.48, 73.17 57.72, 14.75 59 M14.75 59 C6.88 57.74, 1.42 53.03, 0 44.25 M14.75 59 C4.61 58.85, -1.75 56.01, 0 44.25 M0 44.25 C-0.54 36.99, 0.82 29.91, 0 14.75 M0 44.25 C-0.89 36.73, 0.88 29.3, 0 14.75 M0 14.75 C-1.85 3.78, 4.93 1.53, 14.75 0 M0 14.75 C0.42 5.23, 6.15 -1.24, 14.75 0" stroke="#1e1e1e" stroke-width="2" fill="none"></path></g><g stroke-linecap="round" transform="translate(745 306) rotate(0 80 29.5)"><path d="M14.75 0 C68.26 0.65, 119.97 -1.54, 145.25 0 M14.75 0 C63.79 0.59, 113.53 0.32, 145.25 0 M145.25 0 C156.01 -1.42, 161.93 3.32, 160 14.75 M145.25 0 C156.23 -1.67, 158.36 3.6, 160 14.75 M160 14.75 C161.24 20.65, 158.29 28.18, 160 44.25 M160 14.75 C160.04 21.32, 159.55 30, 160 44.25 M160 44.25 C159.89 55.46, 155.29 59.44, 145.25 59 M160 44.25 C158.86 54.74, 154.7 59.76, 145.25 59 M145.25 59 C107.1 61.42, 67.88 58.48, 14.75 59 M145.25 59 C111.04 58.41, 78.18 58.2, 14.75 59 M14.75 59 C6.12 57.92, 0.85 52.94, 0 44.25 M14.75 59 C4 59.14, 1.07 54.4, 0 44.25 M0 44.25 C1.62 34.11, -1.65 24.53, 0 14.75 M0 44.25 C-0.67 38, -1.11 32, 0 14.75 M0 14.75 C1.93 5.37, 6.27 0.89, 14.75 0 M0 14.75 C1.89 2.98, 3.89 0.65, 14.75 0" stroke="#1e1e1e" stroke-width="2" fill="none"></path></g><g stroke-linecap="round" transform="translate(972 180) rotate(0 80 29.5)"><path d="M14.75 0 C52.33 -0.45, 86.54 0.36, 145.25 0 M14.75 0 C59.44 -0.43, 104.16 -1.07, 145.25 0 M145.25 0 C157.01 0.06, 158.94 5.85, 160 14.75 M145.25 0 C156.06 -2.22, 160.19 2.64, 160 14.75 M160 14.75 C161.61 23.88, 161.48 28.31, 160 44.25 M160 14.75 C159.53 25.98, 159.68 36.74, 160 44.25 M160 44.25 C158.01 54.55, 155.77 59.16, 145.25 59 M160 44.25 C158.5 55.36, 153.89 60.61, 145.25 59 M145.25 59 C97.86 57.91, 50.37 57.68, 14.75 59 M145.25 59 C112.96 60.15, 78.35 59.73, 14.75 59 M14.75 59 C3.5 57.47, 1.59 54.78, 0 44.25 M14.75 59 C5.71 56.91, -0.49 54.27, 0 44.25 M0 44.25 C0.26 32.11, 0.9 19.22, 0 14.75 M0 44.25 C-0.11 35.72, 1.15 26.24, 0 14.75 M0 14.75 C-0.4 5.57, 6.49 -0.37, 14.75 0 M0 14.75 C0.92 5.78, 5.08 0.05, 14.75 0" stroke="#1e1e1e" stroke-width="2" fill="none"></path></g><g stroke-linecap="round" transform="translate(980 303) rotate(0 80 29.5)"><path d="M14.75 0 C59.62 2.66, 105.76 -0.83, 145.25 0 M14.75 0 C42.59 1.76, 70.87 1.48, 145.25 0 M145.25 0 C156.48 1.33, 160.67 5.04, 160 14.75 M145.25 0 C156.26 -1.87, 158.58 3.44, 160 14.75 M160 14.75 C158.25 20.09, 158.24 28.55, 160 44.25 M160 14.75 C160.39 22.56, 159.45 29.93, 160 44.25 M160 44.25 C158.48 54.06, 156.96 60.42, 145.25 59 M160 44.25 C158.16 54.47, 154.52 56.86, 145.25 59 M145.25 59 C107.85 57.46, 71.48 57.96, 14.75 59 M145.25 59 C99.2 59.61, 55.09 60.35, 14.75 59 M14.75 59 C3.91 57.86, 0.07 54.75, 0 44.25 M14.75 59 C5.91 57.54, -1.86 55.07, 0 44.25 M0 44.25 C-0.54 34.28, -0.13 28.87, 0 14.75 M0 44.25 C-0.88 33.81, -0.26 21.99, 0 14.75 M0 14.75 C0.21 5.82, 4.11 0.55, 14.75 0 M0 14.75 C1.35 4.76, 3.82 0.8, 14.75 0" stroke="#1e1e1e" stroke-width="2" fill="none"></path></g><g stroke-linecap="round" transform="translate(985 437) rotate(0 80 29.5)"><path d="M14.75 0 C62.24 -0.32, 107.7 -1.22, 145.25 0 M14.75 0 C49.11 0.24, 84.75 0.68, 145.25 0 M145.25 0 C155.01 0.5, 159.55 3.82, 160 14.75 M145.25 0 C157.11 -0.65, 161.09 5.81, 160 14.75 M160 14.75 C161.99 23.51, 161.99 35.92, 160 44.25 M160 14.75 C159.37 24.24, 160.18 34.66, 160 44.25 M160 44.25 C159.14 55.33, 153.24 60.93, 145.25 59 M160 44.25 C158.64 53.06, 157.31 57.84, 145.25 59 M145.25 59 C97.97 57.83, 53.63 59.96, 14.75 59 M145.25 59 C110.11 59.7, 76.46 58.63, 14.75 59 M14.75 59 C5.17 60.24, 0.21 53.12, 0 44.25 M14.75 59 C3.99 59.81, -1.4 53.65, 0 44.25 M0 44.25 C0.73 35.14, 1.29 27.04, 0 14.75 M0 44.25 C0.59 33.88, -0.69 23.53, 0 14.75 M0 14.75 C-1.16 6.35, 6.15 1.69, 14.75 0 M0 14.75 C0.53 2.71, 6.34 -1.42, 14.75 0" stroke="#1e1e1e" stroke-width="2" fill="none"></path></g><g stroke-linecap="round" transform="translate(988 557) rotate(0 80 29.5)"><path d="M14.75 0 C44.95 -1.12, 77.71 0.15, 145.25 0 M14.75 0 C60.72 0.08, 108.34 -0.5, 145.25 0 M145.25 0 C153.34 1.27, 158.84 6.35, 160 14.75 M145.25 0 C156.5 1.94, 160.53 2.71, 160 14.75 M160 14.75 C160.45 24.57, 161.74 34.73, 160 44.25 M160 14.75 C159.14 21.03, 160.22 29.4, 160 44.25 M160 44.25 C160.77 53.96, 153.72 58.48, 145.25 59 M160 44.25 C160.32 54.83, 154.04 57.83, 145.25 59 M145.25 59 C98.35 60.23, 50.7 59.23, 14.75 59 M145.25 59 C97.79 60.14, 52.12 60.15, 14.75 59 M14.75 59 C5.22 57.29, 0.66 52.61, 0 44.25 M14.75 59 C6.09 57.67, -0.46 56.37, 0 44.25 M0 44.25 C1.56 35.7, -0.65 30.16, 0 14.75 M0 44.25 C0.06 34.93, 0.64 27.55, 0 14.75 M0 14.75 C0.33 4.49, 5.2 0.17, 14.75 0 M0 14.75 C1.06 5.18, 4.46 1.49, 14.75 0" stroke="#1e1e1e" stroke-width="2" fill="none"></path></g><g stroke-linecap="round" transform="translate(753 440) rotate(0 80 29.5)"><path d="M14.75 0 C52.71 3.03, 94.57 2.86, 145.25 0 M14.75 0 C61.09 -0.71, 108.51 0.52, 145.25 0 M145.25 0 C153.29 -1.43, 160.58 2.94, 160 14.75 M145.25 0 C156.43 -1.47, 161.75 5.96, 160 14.75 M160 14.75 C159.18 22.9, 158.55 30.7, 160 44.25 M160 14.75 C160.53 22.36, 159.1 30.34, 160 44.25 M160 44.25 C159.16 55.23, 154.78 58.35, 145.25 59 M160 44.25 C162.18 55.26, 156.5 57.21, 145.25 59 M145.25 59 C103.57 57.41, 59.51 59.2, 14.75 59 M145.25 59 C97.24 60.02, 49.84 59.47, 14.75 59 M14.75 59 C4.38 57.93, 0.5 54.76, 0 44.25 M14.75 59 C4.32 57.42, 0.15 54.91, 0 44.25 M0 44.25 C-1.18 33.11, 1.74 25.84, 0 14.75 M0 44.25 C-0.23 34.74, 0.19 26.83, 0 14.75 M0 14.75 C0.95 5.8, 5.21 1.96, 14.75 0 M0 14.75 C0.88 3.04, 5.78 1.53, 14.75 0" stroke="#1e1e1e" stroke-width="2" fill="none"></path></g><g stroke-linecap="round" transform="translate(753 557) rotate(0 80 29.5)"><path d="M14.75 0 C40.92 -1.11, 67.5 -0.09, 145.25 0 M14.75 0 C46.06 -1.49, 78.29 -2.1, 145.25 0 M145.25 0 C153.45 -0.05, 161.98 3.41, 160 14.75 M145.25 0 C153.22 -0.13, 159.65 4.21, 160 14.75 M160 14.75 C159.28 25.74, 161.03 31.35, 160 44.25 M160 14.75 C160.77 24.99, 160.53 36.21, 160 44.25 M160 44.25 C161.18 55.12, 156.98 60.53, 145.25 59 M160 44.25 C157.95 52.86, 156.01 61.21, 145.25 59 M145.25 59 C95.08 57.29, 46.86 56.28, 14.75 59 M145.25 59 C98.02 60.01, 53.53 59.06, 14.75 59 M14.75 59 C4.38 57.19, -1.08 53.29, 0 44.25 M14.75 59 C5.47 59.94, -0.34 54.94, 0 44.25 M0 44.25 C0.28 34.86, -0.79 26.03, 0 14.75 M0 44.25 C-0.05 35.39, -0.21 25.41, 0 14.75 M0 14.75 C1.31 4.69, 5.14 1.25, 14.75 0 M0 14.75 C1.75 5.53, 4.99 -0.01, 14.75 0" stroke="#1e1e1e" stroke-width="2" fill="none"></path></g><g stroke-linecap="round" transform="translate(524 304) rotate(0 80 29.5)"><path d="M14.75 0 C68.07 1.5, 115.86 -1.11, 145.25 0 M14.75 0 C53.07 1.4, 91.7 1.69, 145.25 0 M145.25 0 C154.4 -0.61, 159.51 3.41, 160 14.75 M145.25 0 C154.7 0.89, 158.38 3.14, 160 14.75 M160 14.75 C160.17 24.05, 158.24 31.93, 160 44.25 M160 14.75 C160.31 25.72, 160.13 33.96, 160 44.25 M160 44.25 C158.57 53.85, 154.23 58.55, 145.25 59 M160 44.25 C158.91 53.95, 157.25 59.18, 145.25 59 M145.25 59 C111.49 58.01, 79.83 59.98, 14.75 59 M145.25 59 C118.7 59.46, 92.63 57.87, 14.75 59 M14.75 59 C4.03 60.55, -0.44 55.42, 0 44.25 M14.75 59 C3.94 58.95, 0.7 53.58, 0 44.25 M0 44.25 C-1.25 34.74, 0.67 21.75, 0 14.75 M0 44.25 C-0.65 33.7, 0.82 21.97, 0 14.75 M0 14.75 C-1.32 5.27, 6.73 0.63, 14.75 0 M0 14.75 C-1.8 3.49, 5.83 -0.8, 14.75 0" stroke="#1e1e1e" stroke-width="2" fill="none"></path></g><g stroke-linecap="round" transform="translate(527 437) rotate(0 80 29.5)"><path d="M14.75 0 C51.95 0.27, 86.93 -1.08, 145.25 0 M14.75 0 C48.65 -0.82, 82.96 -0.77, 145.25 0 M145.25 0 C155.13 1.98, 158.65 3.51, 160 14.75 M145.25 0 C156.57 -2.3, 161.5 5.07, 160 14.75 M160 14.75 C158.47 23.84, 158.4 34.94, 160 44.25 M160 14.75 C159.1 26.59, 160.76 37.58, 160 44.25 M160 44.25 C160.2 52.42, 154.98 58.14, 145.25 59 M160 44.25 C159.07 54.88, 153.54 58.53, 145.25 59 M145.25 59 C117.06 58.58, 89.88 58.41, 14.75 59 M145.25 59 C104.45 57.95, 63.56 58.9, 14.75 59 M14.75 59 C4.37 57.03, -0.87 53.31, 0 44.25 M14.75 59 C7.07 59.58, 2.21 52.66, 0 44.25 M0 44.25 C0.52 34.52, -1.52 25.46, 0 14.75 M0 44.25 C0.53 36.3, -0.46 28.2, 0 14.75 M0 14.75 C1.33 6.56, 6.6 -1.94, 14.75 0 M0 14.75 C-1.58 3.95, 3.1 2.01, 14.75 0" stroke="#1e1e1e" stroke-width="2" fill="none"></path></g><g stroke-linecap="round" transform="translate(522 556) rotate(0 80 29.5)"><path d="M14.75 0 C42.58 -1.03, 67.97 -1.97, 145.25 0 M14.75 0 C55.14 -1.78, 94.16 -0.01, 145.25 0 M145.25 0 C153.52 -1.11, 160.12 6.48, 160 14.75 M145.25 0 C154.09 -1.74, 161.75 5.39, 160 14.75 M160 14.75 C159.23 22.97, 160.4 29.2, 160 44.25 M160 14.75 C160.77 24.61, 160.71 34.28, 160 44.25 M160 44.25 C160.01 55.98, 156.59 57.96, 145.25 59 M160 44.25 C158.62 53.89, 155.29 60.03, 145.25 59 M145.25 59 C116.98 58.14, 88.8 60.73, 14.75 59 M145.25 59 C108.82 58.77, 74.3 59.72, 14.75 59 M14.75 59 C6.38 58.1, -1.37 55.37, 0 44.25 M14.75 59 C3.73 60.39, -0.66 54.72, 0 44.25 M0 44.25 C1.79 35.71, -1.14 24.86, 0 14.75 M0 44.25 C-0.59 38.15, 0.57 29.21, 0 14.75 M0 14.75 C-0.03 4.85, 6.39 1.59, 14.75 0 M0 14.75 C0.66 3.99, 6.35 -0.78, 14.75 0" stroke="#1e1e1e" stroke-width="2" fill="none"></path></g><g stroke-linecap="round" transform="translate(517 59) rotate(0 80 29.5)"><path d="M14.75 0 C54.51 -0.07, 96.65 -0.77, 145.25 0 M14.75 0 C48.14 -1.1, 82.91 -0.59, 145.25 0 M145.25 0 C154.7 -1.57, 160.23 5.71, 160 14.75 M145.25 0 C155.85 1.03, 161.57 4.79, 160 14.75 M160 14.75 C161.26 22.86, 161.96 31.62, 160 44.25 M160 14.75 C160.77 23.03, 160.25 30.46, 160 44.25 M160 44.25 C159.49 52.73, 155.03 58.78, 145.25 59 M160 44.25 C158.44 53.14, 154.42 59.6, 145.25 59 M145.25 59 C93.81 56.55, 42.26 57.15, 14.75 59 M145.25 59 C111.19 58.11, 74.92 57.66, 14.75 59 M14.75 59 C4.12 60.14, 0.84 54.69, 0 44.25 M14.75 59 C5.43 60, -0.44 53.82, 0 44.25 M0 44.25 C0.04 36.18, 1.57 30.18, 0 14.75 M0 44.25 C0.44 35.05, -0.21 28.52, 0 14.75 M0 14.75 C0.94 6.71, 2.95 0.65, 14.75 0 M0 14.75 C0.27 5.74, 6.42 1.88, 14.75 0" stroke="#1e1e1e" stroke-width="2" fill="none"></path></g><g transform="translate(549.3500518798828 76) rotate(0 47.64994812011719 12.5)"><text x="47.64994812011719" y="0" font-family="Virgil, Segoe UI Emoji" font-size="20px" fill="#1e1e1e" text-anchor="middle" style="white-space: pre;" direction="ltr" dominant-baseline="text-before-edge">getMovies</text></g><g stroke-linecap="round" transform="translate(739 61) rotate(0 80 29.5)"><path d="M14.75 0 C49.59 -2.23, 85.77 -3.08, 145.25 0 M14.75 0 C57.75 -0.18, 100.17 0.29, 145.25 0 M145.25 0 C154.6 -1.14, 159.21 6.06, 160 14.75 M145.25 0 C156.05 0.7, 160.51 5.92, 160 14.75 M160 14.75 C157.97 22.27, 159.71 30.5, 160 44.25 M160 14.75 C160.62 26.04, 160.67 35.28, 160 44.25 M160 44.25 C159.9 55.72, 156.02 60.8, 145.25 59 M160 44.25 C157.74 54.83, 155.35 59.83, 145.25 59 M145.25 59 C98.31 58.56, 51.65 58.46, 14.75 59 M145.25 59 C111.02 59.87, 75.86 59.25, 14.75 59 M14.75 59 C5.14 60.06, -1.99 52.22, 0 44.25 M14.75 59 C6.24 60.8, -2.19 54.53, 0 44.25 M0 44.25 C1.04 35.73, -0.67 23.16, 0 14.75 M0 44.25 C-0.35 36.59, 0.32 29.51, 0 14.75 M0 14.75 C0.52 3.23, 4.94 -1.75, 14.75 0 M0 14.75 C-0.6 2.84, 6.19 1.55, 14.75 0" stroke="#1e1e1e" stroke-width="2" fill="none"></path></g><g stroke-linecap="round" transform="translate(969 57) rotate(0 80 29.5)"><path d="M14.75 0 C43.61 -0.75, 69.26 0.13, 145.25 0 M14.75 0 C60.32 1.2, 103.45 0.09, 145.25 0 M145.25 0 C155.58 1.73, 158.74 4.25, 160 14.75 M145.25 0 C157.06 1.5, 157.89 4.58, 160 14.75 M160 14.75 C160.48 23.48, 159.77 29.59, 160 44.25 M160 14.75 C160.74 21.17, 159.98 28.03, 160 44.25 M160 44.25 C160.78 55.27, 153.35 58.67, 145.25 59 M160 44.25 C161.16 54.87, 157 57.08, 145.25 59 M145.25 59 C118.74 60.41, 91.35 58.5, 14.75 59 M145.25 59 C97.8 57.11, 51.41 57.13, 14.75 59 M14.75 59 C5.76 60.83, 1.62 53.37, 0 44.25 M14.75 59 C3.75 61.25, -0.16 55.91, 0 44.25 M0 44.25 C-1.68 35.91, 0.11 29.61, 0 14.75 M0 44.25 C0.85 32.99, 0.44 21.93, 0 14.75 M0 14.75 C-0.89 5.94, 5.57 0.57, 14.75 0 M0 14.75 C-1.11 5.36, 7.03 1.74, 14.75 0" stroke="#1e1e1e" stroke-width="2" fill="none"></path></g><g transform="translate(325 10) rotate(0 51.12312316894531 18.5)"><text x="0" y="0" font-family="Virgil, Segoe UI Emoji" font-size="29.59999999999999px" fill="#1e1e1e" text-anchor="start" style="white-space: pre;" direction="ltr" dominant-baseline="text-before-edge">Routes</text></g><g transform="translate(540 17) rotate(0 61.97337341308594 17.378671296664635)"><text x="0" y="0" font-family="Virgil, Segoe UI Emoji" font-size="27.80587407466341px" fill="#1e1e1e" text-anchor="start" style="white-space: pre;" direction="ltr" dominant-baseline="text-before-edge">Functions</text></g><g transform="translate(755 16) rotate(0 62.00749206542969 17.031976100907272)"><text x="0" y="0" font-family="Virgil, Segoe UI Emoji" font-size="27.25116176145164px" fill="#1e1e1e" text-anchor="start" style="white-space: pre;" direction="ltr" dominant-baseline="text-before-edge">Endpoints</text></g><g transform="translate(992 16) rotate(0 57.257659912109375 17.72685077244394)"><text x="0" y="0" font-family="Virgil, Segoe UI Emoji" font-size="28.362961235910298px" fill="#1e1e1e" text-anchor="start" style="white-space: pre;" direction="ltr" dominant-baseline="text-before-edge">Methods</text></g><g transform="translate(36 146) rotate(0 61.29810333251953 15.5)"><text x="0" y="0" font-family="Virgil, Segoe UI Emoji" font-size="24.800000000000015px" fill="#1e1e1e" text-anchor="start" style="white-space: pre;" direction="ltr" dominant-baseline="text-before-edge">Database</text></g><g transform="translate(15 314.00000000000006) rotate(0 86.31930541992188 16.18397094876221)"><text x="0" y="0" font-family="Virgil, Segoe UI Emoji" font-size="25.894353518019518px" fill="#1e1e1e" text-anchor="start" style="white-space: pre;" direction="ltr" dominant-baseline="text-before-edge">Movies server</text></g><g stroke-linecap="round"><g transform="translate(90 192) rotate(0 0.5 53.5)"><path d="M0.3 -0.27 C0.19 17.59, 0.33 89.97, 0.3 107.79 M-1 -1.46 C-0.8 16.02, 2.05 87.88, 2.64 106.09" stroke="#1e1e1e" stroke-width="2" fill="none"></path></g><g transform="translate(90 192) rotate(0 0.5 53.5)"><path d="M-6.75 82.92 C-3.55 90.48, 1.79 98.97, 2.64 106.09 M-6.75 82.92 C-3.48 89.11, -2.59 95.02, 2.64 106.09" stroke="#1e1e1e" stroke-width="2" fill="none"></path></g><g transform="translate(90 192) rotate(0 0.5 53.5)"><path d="M10.34 82.3 C7.08 90.14, 5.96 98.86, 2.64 106.09 M10.34 82.3 C8.94 88.74, 5.18 94.82, 2.64 106.09" stroke="#1e1e1e" stroke-width="2" fill="none"></path></g></g><mask></mask><g stroke-linecap="round"><g transform="translate(73 215) rotate(0 16.5 20)"><path d="M0.98 0.61 C6.44 7.48, 27.38 34.33, 32.58 41.01 M0.03 -0.11 C5.32 6.46, 25.65 32.94, 31.41 39.41" stroke="#1e1e1e" stroke-width="2" fill="none"></path></g></g><mask></mask><g stroke-linecap="round"><g transform="translate(72 254) rotate(0 17.5 -18.5)"><path d="M0.78 -0.69 C6.5 -6.57, 29.22 -29.65, 34.87 -35.86 M-0.28 1.56 C5.23 -4.58, 28.19 -30.93, 33.85 -37.39" stroke="#1e1e1e" stroke-width="2" fill="none"></path></g></g><mask></mask><g stroke-linecap="round"><g transform="translate(251 92) rotate(0 0.5 246)"><path d="M0.48 0.6 C0.37 82.6, 0.09 411.37, 0.36 493.14 M-0.73 -0.13 C-0.54 82.07, 2.3 409.57, 2.74 491.62" stroke="#1e1e1e" stroke-width="2" fill="none"></path></g></g><mask></mask><g stroke-linecap="round"><g transform="translate(248 92) rotate(0 23.5 0)"><path d="M0.19 0.49 C8.03 0.58, 38.8 0.44, 46.57 0.44 M-0.37 0.27 C7.67 0.21, 39.79 -0.2, 47.59 -0.3" stroke="#1e1e1e" stroke-width="2" fill="none"></path></g><g transform="translate(248 92) rotate(0 23.5 0)"><path d="M25.61 8.01 C31.35 5.36, 36.11 4.04, 47.59 -0.3 M25.61 8.01 C34.73 4.55, 42.9 2, 47.59 -0.3" stroke="#1e1e1e" stroke-width="2" fill="none"></path></g><g transform="translate(248 92) rotate(0 23.5 0)"><path d="M25.41 -8.06 C31.18 -7.16, 35.99 -4.94, 47.59 -0.3 M25.41 -8.06 C34.58 -5.21, 42.83 -1.43, 47.59 -0.3" stroke="#1e1e1e" stroke-width="2" fill="none"></path></g></g><mask></mask><g stroke-linecap="round"><g transform="translate(252.47915030021454 216.61311991692298) rotate(0 20.00058650989547 -0.8065599584614915)"><path d="M-0.09 -0.11 C6.5 -0.39, 33 -1.6, 39.69 -1.82 M-0.8 -0.64 C5.95 -0.83, 34.01 -0.93, 40.77 -1.22" stroke="#1e1e1e" stroke-width="2" fill="none"></path></g><g transform="translate(252.47915030021454 216.61311991692298) rotate(0 20.00058650989547 -0.8065599584614915)"><path d="M22.1 6 C28.07 3.08, 34.05 1.38, 40.77 -1.22 M22.1 6 C28.02 3.16, 34.82 1.34, 40.77 -1.22" stroke="#1e1e1e" stroke-width="2" fill="none"></path></g><g transform="translate(252.47915030021454 216.61311991692298) rotate(0 20.00058650989547 -0.8065599584614915)"><path d="M21.83 -7.69 C27.87 -6.1, 33.94 -3.28, 40.77 -1.22 M21.83 -7.69 C27.84 -5.91, 34.73 -3.1, 40.77 -1.22" stroke="#1e1e1e" stroke-width="2" fill="none"></path></g></g><mask></mask><g stroke-linecap="round"><g transform="translate(193 332) rotate(0 50 -0.5)"><path d="M0.23 0.21 C16.72 -0.09, 83.23 -1.7, 99.92 -2 M-1.11 -0.73 C15.13 -0.89, 82.11 -1.01, 98.93 -0.99" stroke="#1e1e1e" stroke-width="2" fill="none"></path></g><g transform="translate(193 332) rotate(0 50 -0.5)"><path d="M75.45 7.57 C84.78 4.13, 91.74 1.63, 98.93 -0.99 M75.45 7.57 C81.54 6.29, 86.52 2.53, 98.93 -0.99" stroke="#1e1e1e" stroke-width="2" fill="none"></path></g><g transform="translate(193 332) rotate(0 50 -0.5)"><path d="M75.44 -9.53 C84.74 -6.44, 91.7 -2.41, 98.93 -0.99 M75.44 -9.53 C81.52 -6.54, 86.51 -6.04, 98.93 -0.99" stroke="#1e1e1e" stroke-width="2" fill="none"></path></g></g><mask></mask><g stroke-linecap="round"><g transform="translate(254 463) rotate(0 19 0)"><path d="M-0.29 0.4 C6.14 0.53, 31.81 0.35, 38.14 0.24 M0.56 0.13 C6.97 0.13, 31.4 -0.61, 37.78 -0.6" stroke="#1e1e1e" stroke-width="2" fill="none"></path></g><g transform="translate(254 463) rotate(0 19 0)"><path d="M20.03 6.18 C24.57 5.01, 28.1 2.75, 37.78 -0.6 M20.03 6.18 C24.1 4.76, 29.24 2.6, 37.78 -0.6" stroke="#1e1e1e" stroke-width="2" fill="none"></path></g><g transform="translate(254 463) rotate(0 19 0)"><path d="M19.82 -6.81 C24.35 -5.19, 27.92 -4.66, 37.78 -0.6 M19.82 -6.81 C23.99 -5, 29.19 -3.95, 37.78 -0.6" stroke="#1e1e1e" stroke-width="2" fill="none"></path></g></g><mask></mask><g stroke-linecap="round"><g transform="translate(252 584) rotate(0 22 1)"><path d="M-0.54 0.09 C6.82 0.36, 36.83 1.66, 44.29 2.07 M0.18 -0.35 C7.48 -0.01, 36.7 2.46, 44.01 2.8" stroke="#1e1e1e" stroke-width="2" fill="none"></path></g><g transform="translate(252 584) rotate(0 22 1)"><path d="M22.86 8.92 C29.85 7.57, 36.67 5.49, 44.01 2.8 M22.86 8.92 C30.76 6.65, 39.31 4.17, 44.01 2.8" stroke="#1e1e1e" stroke-width="2" fill="none"></path></g><g transform="translate(252 584) rotate(0 22 1)"><path d="M23.87 -6.11 C30.59 -2.59, 37.09 0.21, 44.01 2.8 M23.87 -6.11 C31.45 -2.51, 39.61 0.88, 44.01 2.8" stroke="#1e1e1e" stroke-width="2" fill="none"></path></g></g><mask></mask><g stroke-linecap="round"><g transform="translate(455 90) rotate(0 31 0)"><path d="M-0.58 0.28 C9.83 0.08, 51.94 -0.5, 62.43 -0.49 M1.32 -0.62 C11.6 -0.71, 51.63 0.99, 61.7 0.79" stroke="#1e1e1e" stroke-width="2" fill="none"></path></g></g><mask></mask><g stroke-linecap="round"><g transform="translate(455 212) rotate(0 30.5 0)"><path d="M-0.75 -0.26 C9.34 -0.38, 49.94 -1.19, 60.08 -1.11 M1.06 -1.44 C11.55 -1.42, 52.07 -0.68, 62.31 -0.15" stroke="#1e1e1e" stroke-width="2" fill="none"></path></g></g><mask></mask><g stroke-linecap="round"><g transform="translate(454 333) rotate(0 35 0)"><path d="M0.2 -0.65 C11.91 -0.59, 57.77 -0.31, 69.52 -0.1 M-1.15 1.63 C10.42 1.92, 56.42 1.88, 68.32 1.39" stroke="#1e1e1e" stroke-width="2" fill="none"></path></g></g><mask></mask><g stroke-linecap="round"><g transform="translate(452 466) rotate(0 35.5 0.5)"><path d="M0.56 -0.62 C12.26 -0.41, 58.59 1.1, 70.48 1.46 M-0.61 1.67 C10.86 1.49, 57.22 -0.05, 69.25 -0.42" stroke="#1e1e1e" stroke-width="2" fill="none"></path></g></g><mask></mask><g stroke-linecap="round"><g transform="translate(453 589) rotate(0 33.5 0)"><path d="M0.66 0.23 C11.95 0.18, 56.53 -0.63, 67.57 -0.72 M-0.45 -0.7 C10.74 -0.57, 55.84 0.18, 66.92 0.44" stroke="#1e1e1e" stroke-width="2" fill="none"></path></g></g><mask></mask><g stroke-linecap="round"><g transform="translate(679 87.47870315365509) rotate(0 29.5 0.31150790130158157)"><path d="M-1.14 -1.05 C8.63 -0.8, 49.95 0.3, 59.78 0.46 M0.47 1.02 C10.04 1.54, 49.3 1.94, 59.25 1.91" stroke="#1e1e1e" stroke-width="2" fill="none"></path></g><g transform="translate(679 87.47870315365509) rotate(0 29.5 0.31150790130158157)"><path d="M35.71 10.34 C43.44 8.5, 54.32 1.93, 59.25 1.91 M35.71 10.34 C40.61 7.41, 47.54 5.55, 59.25 1.91" stroke="#1e1e1e" stroke-width="2" fill="none"></path></g><g transform="translate(679 87.47870315365509) rotate(0 29.5 0.31150790130158157)"><path d="M35.8 -6.76 C43.35 -1.77, 54.19 -1.51, 59.25 1.91 M35.8 -6.76 C40.72 -5.57, 47.63 -3.31, 59.25 1.91" stroke="#1e1e1e" stroke-width="2" fill="none"></path></g></g><mask></mask><g stroke-linecap="round"><g transform="translate(678 211) rotate(0 30 -0.5)"><path d="M-0.87 0.92 C9.36 0.89, 50.1 0.41, 60.31 0.17 M0.87 0.36 C11.07 0, 49.7 -0.85, 59.52 -1.35" stroke="#1e1e1e" stroke-width="2" fill="none"></path></g><g transform="translate(678 211) rotate(0 30 -0.5)"><path d="M36.34 8.01 C42.66 6.75, 47.88 4.9, 59.52 -1.35 M36.34 8.01 C43.36 5.08, 53.1 1.16, 59.52 -1.35" stroke="#1e1e1e" stroke-width="2" fill="none"></path></g><g transform="translate(678 211) rotate(0 30 -0.5)"><path d="M35.75 -9.08 C42.24 -6.79, 47.59 -5.09, 59.52 -1.35 M35.75 -9.08 C42.98 -6.19, 52.92 -4.3, 59.52 -1.35" stroke="#1e1e1e" stroke-width="2" fill="none"></path></g></g><mask></mask><g stroke-linecap="round"><g transform="translate(685 332) rotate(0 30 -0.5)"><path d="M-0.98 -1.02 C9.12 -1.29, 49.31 -0.79, 59.65 -0.91 M0.71 1.05 C10.7 0.94, 48.49 0.98, 58.53 0.67" stroke="#1e1e1e" stroke-width="2" fill="none"></path></g><g transform="translate(685 332) rotate(0 30 -0.5)"><path d="M35.15 9.53 C38.57 7.18, 45.61 7.64, 58.53 0.67 M35.15 9.53 C39.88 7.33, 46.92 5.46, 58.53 0.67" stroke="#1e1e1e" stroke-width="2" fill="none"></path></g><g transform="translate(685 332) rotate(0 30 -0.5)"><path d="M34.92 -7.57 C38.49 -6.12, 45.58 -1.88, 58.53 0.67 M34.92 -7.57 C39.7 -5.68, 46.79 -3.46, 58.53 0.67" stroke="#1e1e1e" stroke-width="2" fill="none"></path></g></g><mask></mask><g stroke-linecap="round"><g transform="translate(689 464) rotate(0 31.5 0.5)"><path d="M-0.38 -0.98 C9.97 -0.88, 51.32 0.15, 61.93 0.67 M1.62 1.12 C12.34 1.4, 53.91 2.15, 64.08 2.03" stroke="#1e1e1e" stroke-width="2" fill="none"></path></g><g transform="translate(689 464) rotate(0 31.5 0.5)"><path d="M40.54 10.45 C45.72 6.31, 53.61 6.15, 64.08 2.03 M40.54 10.45 C49.84 6.43, 59.97 4.16, 64.08 2.03" stroke="#1e1e1e" stroke-width="2" fill="none"></path></g><g transform="translate(689 464) rotate(0 31.5 0.5)"><path d="M40.64 -6.66 C45.79 -5.85, 53.66 -1.06, 64.08 2.03 M40.64 -6.66 C49.87 -3.92, 59.96 0.56, 64.08 2.03" stroke="#1e1e1e" stroke-width="2" fill="none"></path></g></g><mask></mask><g stroke-linecap="round"><g transform="translate(682 586) rotate(0 35.5 -0.5)"><path d="M0.1 -0.19 C11.6 -0.47, 57.82 -1.88, 69.83 -2.04 M-1.31 -1.33 C10.47 -1.47, 59.71 -1.29, 71.93 -1.05" stroke="#1e1e1e" stroke-width="2" fill="none"></path></g><g transform="translate(682 586) rotate(0 35.5 -0.5)"><path d="M48.35 7.26 C56.77 2.23, 64.06 3.05, 71.93 -1.05 M48.35 7.26 C55.38 5.13, 61.96 2.36, 71.93 -1.05" stroke="#1e1e1e" stroke-width="2" fill="none"></path></g><g transform="translate(682 586) rotate(0 35.5 -0.5)"><path d="M48.53 -9.84 C56.84 -8.55, 64.06 -1.42, 71.93 -1.05 M48.53 -9.84 C55.54 -7.03, 62.07 -4.86, 71.93 -1.05" stroke="#1e1e1e" stroke-width="2" fill="none"></path></g></g><mask></mask><g stroke-linecap="round"><g transform="translate(898 91) rotate(0 36 -0.5)"><path d="M-0.18 -0.16 C11.97 -0.47, 59.67 -0.9, 71.81 -0.93 M-1.74 -1.29 C10.34 -1.47, 58.44 0.81, 70.77 0.64" stroke="#1e1e1e" stroke-width="2" fill="none"></path></g><g transform="translate(898 91) rotate(0 36 -0.5)"><path d="M47.11 8.72 C51.67 6.78, 56.93 6.5, 70.77 0.64 M47.11 8.72 C55.52 6.7, 63.88 2.49, 70.77 0.64" stroke="#1e1e1e" stroke-width="2" fill="none"></path></g><g transform="translate(898 91) rotate(0 36 -0.5)"><path d="M47.45 -8.38 C52.06 -6.79, 57.26 -3.54, 70.77 0.64 M47.45 -8.38 C55.89 -4.31, 64.14 -2.45, 70.77 0.64" stroke="#1e1e1e" stroke-width="2" fill="none"></path></g></g><mask></mask><g stroke-linecap="round"><g transform="translate(899 211) rotate(0 35.5 -0.5)"><path d="M-0.44 0.3 C11.32 0.21, 57.87 0.34, 69.9 0.16 M1.53 -0.58 C13.71 -1.05, 60.39 -1.56, 72.03 -1.35" stroke="#1e1e1e" stroke-width="2" fill="none"></path></g><g transform="translate(899 211) rotate(0 35.5 -0.5)"><path d="M48.53 7.18 C54.72 3.34, 61.89 4.31, 72.03 -1.35 M48.53 7.18 C55.16 3.38, 64.03 2.38, 72.03 -1.35" stroke="#1e1e1e" stroke-width="2" fill="none"></path></g><g transform="translate(899 211) rotate(0 35.5 -0.5)"><path d="M48.54 -9.92 C54.84 -9.58, 62.01 -4.44, 72.03 -1.35 M48.54 -9.92 C55.06 -8.25, 63.93 -3.78, 72.03 -1.35" stroke="#1e1e1e" stroke-width="2" fill="none"></path></g></g><mask></mask><g stroke-linecap="round"><g transform="translate(905 337) rotate(0 38.5 0.5)"><path d="M1.07 -0.26 C14.05 0.15, 64.52 1.36, 77.06 1.7 M0.17 -1.44 C13.07 -1.31, 63.64 -0.27, 76.15 -0.06" stroke="#1e1e1e" stroke-width="2" fill="none"></path></g><g transform="translate(905 337) rotate(0 38.5 0.5)"><path d="M52.5 8.05 C57.55 6.08, 64.57 2.97, 76.15 -0.06 M52.5 8.05 C61.23 4.64, 69.29 3.05, 76.15 -0.06" stroke="#1e1e1e" stroke-width="2" fill="none"></path></g><g transform="translate(905 337) rotate(0 38.5 0.5)"><path d="M52.82 -9.05 C57.69 -7.09, 64.64 -6.27, 76.15 -0.06 M52.82 -9.05 C61.45 -6.28, 69.39 -1.69, 76.15 -0.06" stroke="#1e1e1e" stroke-width="2" fill="none"></path></g></g><mask></mask><g stroke-linecap="round"><g transform="translate(913 469) rotate(0 36 -0.5)"><path d="M-1.09 -0.53 C10.69 -0.63, 59.82 -0.91, 71.81 -0.81 M0.54 1.81 C12.04 1.94, 58.66 1.41, 70.76 0.82" stroke="#1e1e1e" stroke-width="2" fill="none"></path></g><g transform="translate(913 469) rotate(0 36 -0.5)"><path d="M47.51 10.01 C55.82 6.28, 66.18 1.06, 70.76 0.82 M47.51 10.01 C57.41 6.09, 66.41 3.56, 70.76 0.82" stroke="#1e1e1e" stroke-width="2" fill="none"></path></g><g transform="translate(913 469) rotate(0 36 -0.5)"><path d="M47.05 -7.09 C55.51 -4.07, 66.06 -2.54, 70.76 0.82 M47.05 -7.09 C57.16 -4.39, 66.34 -0.3, 70.76 0.82" stroke="#1e1e1e" stroke-width="2" fill="none"></path></g></g><mask></mask><g stroke-linecap="round"><g transform="translate(913 586) rotate(0 34.5 1)"><path d="M1.2 -0.66 C12.95 -0.05, 58.55 1.93, 69.74 2.54 M0.37 1.61 C12.09 1.95, 58.04 0.77, 69.18 0.7" stroke="#1e1e1e" stroke-width="2" fill="none"></path></g><g transform="translate(913 586) rotate(0 34.5 1)"><path d="M45.83 9.64 C50.38 8.51, 57.94 4.01, 69.18 0.7 M45.83 9.64 C55.85 7.27, 63.62 1.95, 69.18 0.7" stroke="#1e1e1e" stroke-width="2" fill="none"></path></g><g transform="translate(913 586) rotate(0 34.5 1)"><path d="M45.55 -7.46 C50 -4.52, 57.63 -4.94, 69.18 0.7 M45.55 -7.46 C55.61 -3.24, 63.49 -1.97, 69.18 0.7" stroke="#1e1e1e" stroke-width="2" fill="none"></path></g></g><mask></mask><g stroke-linecap="round"><g transform="translate(1197 84) rotate(0 2 253)"><path d="M-0.63 0.78 C-0.02 84.86, 2.69 420.77, 3.52 504.92 M1.25 0.15 C1.66 84.29, 1.89 421.45, 2.32 505.88" stroke="#1e1e1e" stroke-width="2" fill="none"></path></g></g><mask></mask><g stroke-linecap="round"><g transform="translate(1193 85) rotate(0 -30.5 0)"><path d="M-1.17 0.65 C-11.3 0.75, -50.55 0.2, -60.38 0.12 M0.42 -0.05 C-9.85 0.3, -50.86 1.46, -61.01 1.72" stroke="#1e1e1e" stroke-width="2" fill="none"></path></g><g transform="translate(1193 85) rotate(0 -30.5 0)"><path d="M-37.76 -7.47 C-44.42 -3.62, -53.01 -0.18, -61.01 1.72 M-37.76 -7.47 C-45.23 -5.29, -52.08 -1.58, -61.01 1.72" stroke="#1e1e1e" stroke-width="2" fill="none"></path></g><g transform="translate(1193 85) rotate(0 -30.5 0)"><path d="M-37.29 9.62 C-44.04 7.8, -52.79 5.57, -61.01 1.72 M-37.29 9.62 C-45.05 6.45, -52.04 4.8, -61.01 1.72" stroke="#1e1e1e" stroke-width="2" fill="none"></path></g></g><mask></mask><g stroke-linecap="round"><g transform="translate(1195 207) rotate(0 -30.5 -0.5)"><path d="M0.78 1.11 C-9.63 0.67, -51.21 -1.77, -61.57 -2.08 M-0.26 0.65 C-10.96 0.27, -52.46 -1.11, -62.82 -1.11" stroke="#1e1e1e" stroke-width="2" fill="none"></path></g><g transform="translate(1195 207) rotate(0 -30.5 -0.5)"><path d="M-39.17 -9.21 C-46.15 -6.97, -58.68 -3.69, -62.82 -1.11 M-39.17 -9.21 C-47.39 -5.73, -54.11 -3.35, -62.82 -1.11" stroke="#1e1e1e" stroke-width="2" fill="none"></path></g><g transform="translate(1195 207) rotate(0 -30.5 -0.5)"><path d="M-39.5 7.89 C-46.44 3.71, -58.85 0.58, -62.82 -1.11 M-39.5 7.89 C-47.49 5.91, -54.11 2.85, -62.82 -1.11" stroke="#1e1e1e" stroke-width="2" fill="none"></path></g></g><mask></mask><g stroke-linecap="round"><g transform="translate(1197 469) rotate(0 -26.5 -1.5)"><path d="M0.82 0.61 C-8.18 -0.14, -44.77 -3.57, -53.91 -4.04 M-0.22 -0.12 C-8.85 -0.8, -43.1 -2.38, -51.68 -3.05" stroke="#1e1e1e" stroke-width="2" fill="none"></path></g><g transform="translate(1197 469) rotate(0 -26.5 -1.5)"><path d="M-27.71 -10.17 C-34.01 -9.35, -44.08 -7.36, -51.68 -3.05 M-27.71 -10.17 C-37.42 -6.62, -44.87 -4.46, -51.68 -3.05" stroke="#1e1e1e" stroke-width="2" fill="none"></path></g><g transform="translate(1197 469) rotate(0 -26.5 -1.5)"><path d="M-28.74 6.9 C-34.79 2.5, -44.55 -0.74, -51.68 -3.05 M-28.74 6.9 C-38.1 4.22, -45.17 0.16, -51.68 -3.05" stroke="#1e1e1e" stroke-width="2" fill="none"></path></g></g><mask></mask><g stroke-linecap="round"><g transform="translate(1198 587) rotate(0 -26.5 0.5)"><path d="M-0.29 0.24 C-8.87 0.49, -43.7 0.92, -52.54 1.06 M1.76 -0.67 C-6.85 -0.18, -43.91 2.1, -53.25 2.64" stroke="#1e1e1e" stroke-width="2" fill="none"></path></g><g transform="translate(1198 587) rotate(0 -26.5 0.5)"><path d="M-30.31 -7.3 C-34.82 -4.47, -40.01 -3.68, -53.25 2.64 M-30.31 -7.3 C-37.91 -4.94, -44.1 -1.84, -53.25 2.64" stroke="#1e1e1e" stroke-width="2" fill="none"></path></g><g transform="translate(1198 587) rotate(0 -26.5 0.5)"><path d="M-29.29 9.77 C-33.96 8.96, -39.37 6.11, -53.25 2.64 M-29.29 9.77 C-37.22 6.8, -43.73 4.58, -53.25 2.64" stroke="#1e1e1e" stroke-width="2" fill="none"></path></g></g><mask></mask><g transform="translate(228.68070358206035 269.40408755711525) rotate(359.0721874806411 34.819076446680754 27.330549307624636)"><text x="0" y="0" font-family="Virgil, Segoe UI Emoji" font-size="21.864439446099734px" fill="#1971c2" text-anchor="start" style="white-space: pre;" direction="ltr" dominant-baseline="text-before-edge">Gorilla</text><text x="0" y="27.33054930762467" font-family="Virgil, Segoe UI Emoji" font-size="21.864439446099734px" fill="#1971c2" text-anchor="start" style="white-space: pre;" direction="ltr" dominant-baseline="text-before-edge">mux</text></g><g transform="translate(19 378) rotate(0 78.68993377685547 12.5)"><text x="0" y="0" font-family="Virgil, Segoe UI Emoji" font-size="20px" fill="#1e1e1e" text-anchor="start" style="white-space: pre;" direction="ltr" dominant-baseline="text-before-edge">LocalHost:8000</text></g><g transform="translate(332 82) rotate(0 46.2099609375 12.5)"><text x="0" y="0" font-family="Virgil, Segoe UI Emoji" font-size="20px" fill="#1e1e1e" text-anchor="start" style="white-space: pre;" direction="ltr" dominant-baseline="text-before-edge">GET ALL</text></g><g transform="translate(314 200) rotate(0 58.349945068359375 12.5)"><text x="0" y="0" font-family="Virgil, Segoe UI Emoji" font-size="20px" fill="#1e1e1e" text-anchor="start" style="white-space: pre;" direction="ltr" dominant-baseline="text-before-edge">GET BY ID</text></g><g transform="translate(324 321) rotate(0 46.25595214843747 14)"><text x="0" y="0" font-family="Virgil, Segoe UI Emoji" font-size="22.399999999999995px" fill="#1e1e1e" text-anchor="start" style="white-space: pre;" direction="ltr" dominant-baseline="text-before-edge">CREATE</text></g><g transform="translate(319 451) rotate(0 48.88996124267578 14.248660941324772)"><text x="0" y="0" font-family="Virgil, Segoe UI Emoji" font-size="22.797857506119623px" fill="#1e1e1e" text-anchor="start" style="white-space: pre;" direction="ltr" dominant-baseline="text-before-edge">UPDATE</text></g><g transform="translate(324.90801025390624 576) rotate(0 47.095952148437505 14)"><text x="0" y="0" font-family="Virgil, Segoe UI Emoji" font-size="22.399999999999988px" fill="#1e1e1e" text-anchor="start" style="white-space: pre;" direction="ltr" dominant-baseline="text-before-edge">DELETE</text></g><g transform="translate(548 197) rotate(0 50.66394653320316 15)"><text x="0" y="0" font-family="Virgil, Segoe UI Emoji" font-size="24.000000000000025px" fill="#1e1e1e" text-anchor="start" style="white-space: pre;" direction="ltr" dominant-baseline="text-before-edge">getMovie</text></g><g transform="translate(530 318) rotate(0 72.75072204589844 15.5)"><text x="0" y="0" font-family="Virgil, Segoe UI Emoji" font-size="24.8px" fill="#1e1e1e" text-anchor="start" style="white-space: pre;" direction="ltr" dominant-baseline="text-before-edge">createMovie</text></g><g transform="translate(539 451) rotate(0 67.40152343750003 14)"><text x="0" y="0" font-family="Virgil, Segoe UI Emoji" font-size="22.4px" fill="#1e1e1e" text-anchor="start" style="white-space: pre;" direction="ltr" dominant-baseline="text-before-edge">updateMovie</text></g><g transform="translate(532 569) rotate(0 67.52272583007812 14.946608232675317)"><text x="0" y="0" font-family="Virgil, Segoe UI Emoji" font-size="23.914573172280484px" fill="#1e1e1e" text-anchor="start" style="white-space: pre;" direction="ltr" dominant-baseline="text-before-edge">deleteMovie</text></g><g transform="translate(768.7392138671876 75) rotate(0 40.820349731445276 14.499999999999972)"><text x="0" y="0" font-family="Virgil, Segoe UI Emoji" font-size="23.199999999999957px" fill="#1e1e1e" text-anchor="start" style="white-space: pre;" direction="ltr" dominant-baseline="text-before-edge">/movies</text></g><g transform="translate(756 193) rotate(0 59.60672393798825 15.5)"><text x="0" y="0" font-family="Virgil, Segoe UI Emoji" font-size="24.800000000000008px" fill="#1e1e1e" text-anchor="start" style="white-space: pre;" direction="ltr" dominant-baseline="text-before-edge">/movies/id</text></g><g transform="translate(772 321) rotate(0 42.68995666503906 15.164112402648698)"><text x="0" y="0" font-family="Virgil, Segoe UI Emoji" font-size="24.262579844237894px" fill="#1e1e1e" text-anchor="start" style="white-space: pre;" direction="ltr" dominant-baseline="text-before-edge">/movies</text></g><g transform="translate(773 456) rotate(0 57.68392639160163 15)"><text x="0" y="0" font-family="Virgil, Segoe UI Emoji" font-size="24.00000000000002px" fill="#1e1e1e" text-anchor="start" style="white-space: pre;" direction="ltr" dominant-baseline="text-before-edge">/movies/id</text></g><g transform="translate(770 573) rotate(0 59.60672393798825 15.5)"><text x="0" y="0" font-family="Virgil, Segoe UI Emoji" font-size="24.79999999999999px" fill="#1e1e1e" text-anchor="start" style="white-space: pre;" direction="ltr" dominant-baseline="text-before-edge">/movies/id</text></g><g transform="translate(1019 194) rotate(0 29.01756835937499 16)"><text x="0" y="0" font-family="Virgil, Segoe UI Emoji" font-size="25.599999999999994px" fill="#1e1e1e" text-anchor="start" style="white-space: pre;" direction="ltr" dominant-baseline="text-before-edge">GET</text></g><g transform="translate(1015 71) rotate(0 29.01756835937499 16)"><text x="0" y="0" font-family="Virgil, Segoe UI Emoji" font-size="25.599999999999994px" fill="#1e1e1e" text-anchor="start" style="white-space: pre;" direction="ltr" dominant-baseline="text-before-edge">GET</text></g><g transform="translate(1021 317) rotate(0 32.48997497558594 14.509648098973429)"><text x="0" y="0" font-family="Virgil, Segoe UI Emoji" font-size="23.21543695835748px" fill="#1e1e1e" text-anchor="start" style="white-space: pre;" direction="ltr" dominant-baseline="text-before-edge">POST</text></g><g transform="translate(1037 452) rotate(0 24.40477539062499 14)"><text x="0" y="0" font-family="Virgil, Segoe UI Emoji" font-size="22.40000000000002px" fill="#1e1e1e" text-anchor="start" style="white-space: pre;" direction="ltr" dominant-baseline="text-before-edge">PUT</text></g><g transform="translate(1017 572) rotate(0 50.459948730468795 15)"><text x="0" y="0" font-family="Virgil, Segoe UI Emoji" font-size="24.00000000000001px" fill="#1e1e1e" text-anchor="start" style="white-space: pre;" direction="ltr" dominant-baseline="text-before-edge">DELETE</text></g><g stroke-linecap="round"><g transform="translate(1139 330) rotate(0 58.5 0)"><path d="M0.55 0.6 C20.17 0.74, 98.38 0.62, 117.81 0.34 M-0.62 -0.12 C18.91 -0.32, 97.77 -1.56, 117.28 -1.61" stroke="#1e1e1e" stroke-width="2" fill="none"></path></g></g><mask></mask><g stroke-linecap="round" transform="translate(1256 302) rotate(0 72.5 28)"><path d="M14 0 C56.77 -2.65, 99.25 0.7, 131 0 M14 0 C42.38 -1.74, 68.84 -0.26, 131 0 M131 0 C139.2 -1.28, 144.01 4.41, 145 14 M131 0 C139.95 0.49, 147.1 5.42, 145 14 M145 14 C144.68 21.8, 147.2 31.33, 145 42 M145 14 C144.26 20.84, 143.87 27.25, 145 42 M145 42 C143.03 53.17, 139.34 55.28, 131 56 M145 42 C145.73 50.71, 138.83 56.62, 131 56 M131 56 C87.8 55.7, 39.12 57.29, 14 56 M131 56 C104.02 56.17, 79.24 56.25, 14 56 M14 56 C2.99 57.85, 1.23 49.78, 0 42 M14 56 C6.6 58.05, 2.16 49.81, 0 42 M0 42 C-0.15 34.82, 1.15 25.52, 0 14 M0 42 C0.85 32.52, -0.46 23.6, 0 14 M0 14 C-0.2 4.26, 6.14 -1.12, 14 0 M0 14 C-2.02 4.61, 2.74 0.77, 14 0" stroke="#1e1e1e" stroke-width="2" fill="none"></path></g><g transform="translate(1273 318) rotate(0 54.64996337890625 14.041625004234191)"><text x="0" y="0" font-family="Virgil, Segoe UI Emoji" font-size="22.466600006774716px" fill="#1e1e1e" text-anchor="start" style="white-space: pre;" direction="ltr" dominant-baseline="text-before-edge">POSTMAN</text></g></svg>